<svg width="46" height="46" viewBox="0 0 46 46" fill="none" xmlns="http://www.w3.org/2000/svg" role="img" aria-label="Otzar">
  <!-- Official Otzar mark from otzar.ai (source: https://www.otzar.ai/ , brand: https://www.behance.net/gallery/252799665/OTZAR ). Uses currentColor for surface adaptation. -->
  <path d="M9.6449 29.6798C9.6449 29.6798 7.2242 16.4734 22.8878 14.6028C38.5527 12.7322 43.1008 1.50586 43.1008 1.50586C43.1008 1.50586 44.7146 18.0872 23.7677 20.6917C15.0513 21.7757 11.1398 25.579 9.64354 29.6798H9.6449Z" fill="currentColor"/>
  <path d="M17.3167 40.7554C17.3167 40.7554 14.0147 35.0139 22.819 32.6662C31.6232 30.3185 33.9534 28.5763 36.612 25.0351C36.612 25.0351 32.0449 27.7504 28.4862 28.2451C24.9275 28.7398 15.7934 31.1619 15.1879 34.849C15.1879 34.849 14.8581 29.9143 22.1945 28.3005C29.531 26.6867 39.5652 24.6864 44.0038 11.5908C44.0038 11.5908 38.7894 19.8085 26.3183 21.6791C13.8485 23.5497 5.48348 33.8218 17.3153 40.7554H17.3167Z" fill="currentColor"/>
  <path d="M44.0943 15.9177C43.4685 17.1841 42.767 18.3587 41.9885 19.4467C42.1777 20.5455 42.2777 21.6755 42.2777 22.8297C42.2777 33.7289 33.4411 42.5643 22.5418 42.5643C11.6426 42.5643 2.80725 33.7289 2.80725 22.8297C2.80725 11.9305 11.6426 3.09379 22.5418 3.09379C27.5103 3.09379 32.0503 4.9306 35.5198 7.96222C36.224 7.42834 36.8944 6.85121 37.5323 6.23489C37.6283 6.14298 37.7202 6.05107 37.8121 5.96051C33.7965 2.25986 28.4334 0 22.5418 0C10.0923 0 0 10.0923 0 22.5418C0 34.9913 10.0923 45.0837 22.5418 45.0837C34.9913 45.0837 45.0837 34.9913 45.0837 22.5418C45.0837 20.2374 44.7376 18.0126 44.0943 15.919V15.9177Z" fill="currentColor"/>
</svg>
